<svg xmlns="http://www.w3.org/2000/svg" viewBox="0 0 1600 1600" role="img" aria-label="Ender Net — your social network">
  <path fill="currentColor" d="M750.0 317.0C778.0 309.0 816.0 303.0 854.0 299.0C904.0 295.0 950.0 323.0 976.0 365.0C1000.0 403.0 1020.0 455.0 1034.0 501.0C1044.0 531.0 1050.0 551.0 1056.0 567.0C1062.0 578.0 1060.0 585.0 1052.0 588.0C1044.0 591.0 1041.0 592.0 1041.0 598.0C1044.0 609.0 1058.0 619.0 1072.0 631.0C1084.0 641.0 1095.0 648.0 1093.0 655.0C1090.0 662.0 1076.0 663.0 1063.0 663.0C1055.0 664.0 1049.0 663.0 1046.0 669.0C1042.0 676.0 1056.0 681.0 1056.0 688.0C1056.0 696.0 1045.0 698.0 1046.0 705.0C1047.0 714.0 1059.0 718.0 1060.0 726.0C1061.0 736.0 1052.0 741.0 1054.0 751.0C1057.0 762.0 1072.0 767.0 1073.0 779.0C1074.0 793.0 1066.0 806.0 1053.0 816.0C1034.0 837.0 1012.0 854.0 988.0 870.0C958.0 890.0 924.0 906.0 892.0 916.0C852.0 928.0 800.0 926.0 768.0 920.0L750.0 914.0ZM822.0 176.0C833.6 176.0 843.0 185.4 843.0 197.0C843.0 208.6 833.6 218.0 822.0 218.0C810.4 218.0 801.0 208.6 801.0 197.0C801.0 185.4 810.4 176.0 822.0 176.0ZM815.0 197.0L829.0 197.0L829.0 328.0L815.0 328.0ZM884.0 328.0L853.0 381.7L791.0 381.7L760.0 328.0L791.0 274.3L853.0 274.3ZM675.0 613.0L767.0 613.0L767.0 627.0L675.0 627.0ZM675.0 620.0L647.5 667.6L592.5 667.6L565.0 620.0L592.5 572.4L647.5 572.4ZM836.0 415.5L848.9 415.5L849.6 417.5L850.4 419.5L851.5 421.4L852.6 423.2L854.0 424.9L855.5 426.4L857.1 427.8L858.9 429.1L860.7 430.2L862.6 431.1L864.7 431.8L866.7 432.4L868.8 432.8L871.0 433.0L873.1 433.0L875.3 432.8L877.4 432.4L879.5 431.8L881.5 431.0L883.4 430.1L885.3 429.0L887.0 427.7L888.6 426.3L890.1 424.8L891.4 423.1L892.6 421.3L893.6 419.4L894.5 417.4L895.1 415.4L895.6 413.3L895.9 411.1L896.0 409.0L895.9 406.9L895.6 404.7L895.1 402.6L894.5 400.6L893.6 398.6L892.6 396.7L891.4 394.9L890.1 393.2L888.6 391.7L887.0 390.3L885.3 389.0L883.4 387.9L881.5 387.0L879.5 386.2L877.4 385.6L875.3 385.2L873.1 385.0L871.0 385.0L868.8 385.2L866.7 385.6L864.7 386.2L862.6 386.9L860.7 387.8L858.9 388.9L857.1 390.2L855.5 391.6L854.0 393.1L852.6 394.8L851.5 396.6L850.4 398.5L849.6 400.5L848.9 402.5L836.0 402.5ZM848.0 548.5L860.9 548.5L861.6 550.5L862.4 552.5L863.5 554.4L864.6 556.2L866.0 557.9L867.5 559.4L869.1 560.8L870.9 562.1L872.7 563.2L874.6 564.1L876.7 564.8L878.7 565.4L880.8 565.8L883.0 566.0L885.1 566.0L887.3 565.8L889.4 565.4L891.5 564.8L893.5 564.0L895.4 563.1L897.3 562.0L899.0 560.7L900.6 559.3L902.1 557.8L903.4 556.1L904.6 554.3L905.6 552.4L906.5 550.4L907.1 548.4L907.6 546.3L907.9 544.1L908.0 542.0L907.9 539.9L907.6 537.7L907.1 535.6L906.5 533.6L905.6 531.6L904.6 529.7L903.4 527.9L902.1 526.2L900.6 524.7L899.0 523.3L897.3 522.0L895.4 520.9L893.5 520.0L891.5 519.2L889.4 518.6L887.3 518.2L885.1 518.0L883.0 518.0L880.8 518.2L878.7 518.6L876.7 519.2L874.6 519.9L872.7 520.8L870.9 521.9L869.1 523.2L867.5 524.6L866.0 526.1L864.6 527.8L863.5 529.6L862.4 531.5L861.6 533.5L860.9 535.5L848.0 535.5ZM848.0 654.5L860.9 654.5L861.6 656.5L862.4 658.5L863.5 660.4L864.6 662.2L866.0 663.9L867.5 665.4L869.1 666.8L870.9 668.1L872.7 669.2L874.6 670.1L876.7 670.8L878.7 671.4L880.8 671.8L883.0 672.0L885.1 672.0L887.3 671.8L889.4 671.4L891.5 670.8L893.5 670.0L895.4 669.1L897.3 668.0L899.0 666.7L900.6 665.3L902.1 663.8L903.4 662.1L904.6 660.3L905.6 658.4L906.5 656.4L907.1 654.4L907.6 652.3L907.9 650.1L908.0 648.0L907.9 645.9L907.6 643.7L907.1 641.6L906.5 639.6L905.6 637.6L904.6 635.7L903.4 633.9L902.1 632.2L900.6 630.7L899.0 629.3L897.3 628.0L895.4 626.9L893.5 626.0L891.5 625.2L889.4 624.6L887.3 624.2L885.1 624.0L883.0 624.0L880.8 624.2L878.7 624.6L876.7 625.2L874.6 625.9L872.7 626.8L870.9 627.9L869.1 629.2L867.5 630.6L866.0 632.1L864.6 633.8L863.5 635.6L862.4 637.5L861.6 639.5L860.9 641.5L848.0 641.5ZM903.0 814.5L915.9 814.5L916.6 816.5L917.4 818.5L918.5 820.4L919.6 822.2L921.0 823.9L922.5 825.4L924.1 826.8L925.9 828.1L927.7 829.2L929.6 830.1L931.7 830.8L933.7 831.4L935.8 831.8L938.0 832.0L940.1 832.0L942.3 831.8L944.4 831.4L946.5 830.8L948.5 830.0L950.4 829.1L952.3 828.0L954.0 826.7L955.6 825.3L957.1 823.8L958.4 822.1L959.6 820.3L960.6 818.4L961.5 816.4L962.1 814.4L962.6 812.3L962.9 810.1L963.0 808.0L962.9 805.9L962.6 803.7L962.1 801.6L961.5 799.6L960.6 797.6L959.6 795.7L958.4 793.9L957.1 792.2L955.6 790.7L954.0 789.3L952.3 788.0L950.4 786.9L948.5 786.0L946.5 785.2L944.4 784.6L942.3 784.2L940.1 784.0L938.0 784.0L935.8 784.2L933.7 784.6L931.7 785.2L929.6 785.9L927.7 786.8L925.9 787.9L924.1 789.2L922.5 790.6L921.0 792.1L919.6 793.8L918.5 795.6L917.4 797.5L916.6 799.5L915.9 801.5L903.0 801.5ZM788.5 371.2L697.5 371.2L652.0 450.0L697.5 528.8L788.5 528.8L834.0 450.0ZM801.5 667.9L712.5 667.9L668.0 745.0L712.5 822.1L801.5 822.1L846.0 745.0ZM868.5 790.9L779.5 790.9L735.0 868.0L779.5 945.1L868.5 945.1L913.0 868.0Z"/>
  <path fill="#F51106" d="M695.0 330.0L675.0 364.6L635.0 364.6L615.0 330.0L635.0 295.4L675.0 295.4ZM625.0 443.0L667.0 443.0L667.0 457.0L625.0 457.0ZM625.0 450.0L604.0 486.4L562.0 486.4L541.0 450.0L562.0 413.6L604.0 413.6ZM823.0 450.0L783.0 519.3L703.0 519.3L663.0 450.0L703.0 380.7L783.0 380.7ZM577.0 738.0L684.0 738.0L684.0 752.0L577.0 752.0ZM577.0 745.0L556.0 781.4L514.0 781.4L493.0 745.0L514.0 708.6L556.0 708.6ZM835.0 745.0L796.0 812.5L718.0 812.5L679.0 745.0L718.0 677.5L796.0 677.5ZM709.0 880.0L685.5 920.7L638.5 920.7L615.0 880.0L638.5 839.3L685.5 839.3ZM902.0 868.0L863.0 935.5L785.0 935.5L746.0 868.0L785.0 800.5L863.0 800.5ZM817.0 868.0L831.0 868.0L831.0 1038.0L817.0 1038.0ZM824.0 1017.0C835.6 1017.0 845.0 1026.4 845.0 1038.0C845.0 1049.6 835.6 1059.0 824.0 1059.0C812.4 1059.0 803.0 1049.6 803.0 1038.0C803.0 1026.4 812.4 1017.0 824.0 1017.0Z"/>
  <path fill="currentColor" d="M187.6 1135.0L278.8 1135.0L278.8 1170.8L190.8 1170.8L190.8 1198.5L256.0 1198.5L256.0 1234.4L190.8 1234.4L190.8 1262.0L278.8 1262.0L278.8 1265.3L246.2 1297.9L155.0 1297.9L155.0 1167.6ZM340.7 1135.0L343.9 1135.0L396.1 1229.5L396.1 1135.0L431.9 1135.0L431.9 1265.3L399.3 1297.9L396.1 1297.9L343.9 1203.4L343.9 1297.9L308.1 1297.9L308.1 1167.6ZM493.8 1135.0L542.7 1135.0L585.0 1177.3L585.0 1255.5L542.7 1297.9L461.2 1297.9L461.2 1167.6ZM497.0 1170.8L549.2 1170.8L549.2 1262.0L497.0 1262.0ZM646.9 1135.0L738.1 1135.0L738.1 1170.8L650.2 1170.8L650.2 1198.5L715.3 1198.5L715.3 1234.4L650.2 1234.4L650.2 1262.0L738.1 1262.0L738.1 1265.3L705.5 1297.9L614.3 1297.9L614.3 1167.6ZM800.0 1135.0L865.2 1135.0L891.2 1161.1L891.2 1206.7L865.2 1232.7L891.2 1297.9L848.9 1297.9L839.1 1232.7L803.3 1232.7L803.3 1297.9L767.4 1297.9L767.4 1167.6ZM803.3 1170.8L855.4 1170.8L855.4 1196.9L803.3 1196.9ZM1047.6 1135.0L1050.8 1135.0L1103.0 1229.5L1103.0 1135.0L1138.8 1135.0L1138.8 1265.3L1106.2 1297.9L1103.0 1297.9L1050.8 1203.4L1050.8 1297.9L1015.0 1297.9L1015.0 1167.6ZM1200.7 1135.0L1291.9 1135.0L1291.9 1170.8L1203.9 1170.8L1203.9 1198.5L1269.1 1198.5L1269.1 1234.4L1203.9 1234.4L1203.9 1262.0L1291.9 1262.0L1291.9 1265.3L1259.3 1297.9L1168.1 1297.9L1168.1 1167.6ZM1353.8 1135.0L1445.0 1135.0L1445.0 1170.8L1401.0 1170.8L1401.0 1265.3L1368.4 1297.9L1365.2 1297.9L1365.2 1170.8L1321.2 1170.8L1321.2 1167.6Z"/>
  <text x="800" y="1452" text-anchor="middle" fill="currentColor" font-family="Century Gothic, Futura, Avenir Next, sans-serif" font-size="60" letter-spacing="7">YOUR SOCIAL NETWORK</text>
</svg>
